<?xml version="1.0" encoding="UTF-8"?>
<level>
  <owner>Fistachka</owner>
  <repo>olen2</repo>
  <version>v1.0.2</version>
  <next number="1" owner="Fistachka" repo="olen3"/>
  <readme>
    <ru>1357426d4fe095df15c34da13061d2a43f0ad5c58a4f6e855e8e6c39e530cca0</ru>
    <en>0c69f793b8bef7e160947bb76e72eae3540fea33b793a929a11abfa3508c845d</en>
  </readme>
  <license>b1b99f5538d1fd3702219bff50c665196dfa42f6ee755c37fe41a6178d6bc6e5</license>
  <exercise number="1">
    <scale>minor</scale>
    <cadenceVariant>harmonic</cadenceVariant>
    <bpm>100</bpm>
    <lowestNote>5</lowestNote>
    <tonalities>2</tonalities>
    <video name="12.mp4" size="1374198" type="video/mp4" volume="0.5">b3d8b240887fa7d5d93a96f663652716790fc20390903a0f2e289d7cfbfef890</video>
    <notes>
      <note number="1" values="5" ticks="772" durationTicks="35" ppq="96" velocity="0.789"/>
      <note number="2" values="5" ticks="820" durationTicks="35" ppq="96" velocity="0.729"/>
      <note number="3" values="5" ticks="868" durationTicks="32" ppq="96" velocity="0.794"/>
      <note number="4" values="5" ticks="916" durationTicks="33" ppq="96" velocity="0.758"/>
      <note number="5" values="5" ticks="964" durationTicks="34" ppq="96" velocity="0.712"/>
      <note number="6" values="18" ticks="1013" durationTicks="33" ppq="96" velocity="0.8"/>
      <note number="7" values="5" ticks="1061" durationTicks="36" ppq="96" velocity="0.8"/>
      <note number="8" values="6" ticks="1109" durationTicks="38" ppq="96" velocity="0.8"/>
      <note number="9" values="7" ticks="1158" durationTicks="93" ppq="96" velocity="0.8"/>
    </notes>
  </exercise>
  <exercise number="2">
    <scale>chromaticminor</scale>
    <cadenceVariant>harmonic</cadenceVariant>
    <bpm>100</bpm>
    <lowestNote>5</lowestNote>
    <tonalities>2</tonalities>
    <video name="13.mp4" size="1639046" type="video/mp4" volume="0.5">9169e28350ab5feefef646b59d745419a682f78256fec53d1a99912dae22d759</video>
    <notes>
      <note number="1" values="18" ticks="207" durationTicks="31" ppq="96" velocity="0.837"/>
      <note number="2" values="18" ticks="255" durationTicks="31" ppq="96" velocity="0.804"/>
      <note number="3" values="18" ticks="303" durationTicks="32" ppq="96" velocity="0.837"/>
      <note number="4" values="18" ticks="351" durationTicks="46" ppq="96" velocity="0.837"/>
      <note number="5" values="79" ticks="398" durationTicks="35" ppq="96" velocity="0.837"/>
      <note number="6" values="79" ticks="448" durationTicks="38" ppq="96" velocity="0.837"/>
      <note number="7" values="69" ticks="495" durationTicks="46" ppq="96" velocity="0.837"/>
      <note number="8" values="79" ticks="543" durationTicks="47" ppq="96" velocity="0.837"/>
      <note number="9" values="18" ticks="591" durationTicks="95" ppq="96" velocity="0.837"/>
    </notes>
  </exercise>
  <exercise number="3">
    <scale>minor</scale>
    <cadenceVariant>harmonic</cadenceVariant>
    <bpm>100</bpm>
    <lowestNote>18</lowestNote>
    <tonalities>2</tonalities>
    <video name="14.mp4" size="1301810" type="video/mp4" volume="0.5">e8039d515b846b3c779baad892dc702c381922577c8eb3ec7b8f21c50c88db22</video>
    <notes>
      <note number="1" values="18" ticks="121" durationTicks="35" ppq="96" velocity="0.812"/>
      <note number="2" values="18" ticks="168" durationTicks="34" ppq="96" velocity="0.769"/>
      <note number="3" values="18" ticks="216" durationTicks="30" ppq="96" velocity="0.817"/>
      <note number="4" values="18" ticks="265" durationTicks="29" ppq="96" velocity="0.812"/>
      <note number="5" values="48" ticks="313" durationTicks="30" ppq="96" velocity="0.744"/>
      <note number="6" values="48" ticks="360" durationTicks="40" ppq="96" velocity="0.822"/>
      <note number="7" values="38" ticks="412" durationTicks="46" ppq="96" velocity="0.822"/>
      <note number="8" values="28" ticks="461" durationTicks="46" ppq="96" velocity="0.822"/>
      <note number="9" values="38" ticks="510" durationTicks="95" ppq="96" velocity="0.822"/>
    </notes>
  </exercise>
  <exercise number="4">
    <scale>minor</scale>
    <cadenceVariant>harmonic</cadenceVariant>
    <bpm>100</bpm>
    <lowestNote>18</lowestNote>
    <tonalities>2</tonalities>
    <video name="15.mp4" size="1460619" type="video/mp4" volume="0.5">e2aefaf09fb4072aecbad633f312c0738dab5379fcfc2a8be6adb978e73acdf0</video>
    <notes>
      <note number="1" values="18" ticks="73" durationTicks="42" ppq="96" velocity="0.835"/>
      <note number="2" values="28" ticks="121" durationTicks="45" ppq="96" velocity="0.803"/>
      <note number="3" values="38" ticks="169" durationTicks="96" ppq="96" velocity="0.8"/>
      <note number="4" values="18" ticks="265" durationTicks="95" ppq="96" velocity="0.8"/>
      <note number="5" values="68" ticks="360" durationTicks="33" ppq="96" velocity="0.8"/>
      <note number="6" values="68" ticks="409" durationTicks="46" ppq="96" velocity="0.8"/>
      <note number="7" values="78" ticks="456" durationTicks="47" ppq="96" velocity="0.8"/>
      <note number="8" values="68" ticks="504" durationTicks="46" ppq="96" velocity="0.8"/>
      <note number="9" values="58" ticks="552" durationTicks="162" ppq="96" velocity="0.8"/>
    </notes>
  </exercise>
  <exercise number="5">
    <scale>minor</scale>
    <cadenceVariant>harmonic</cadenceVariant>
    <bpm>100</bpm>
    <lowestNote>18</lowestNote>
    <tonalities>2</tonalities>
    <video name="16.mp4" size="942736" type="video/mp4" volume="0.5">f7cefe6c079e30d95e27be32147f47fbecc0caedea0603033ab21dc9c4f9051e</video>
    <notes>
      <note number="1" values="58" ticks="47" durationTicks="33" ppq="96" velocity="0.811"/>
      <note number="2" values="18" ticks="97" durationTicks="31" ppq="96" velocity="0.764"/>
      <note number="3" values="38" ticks="144" durationTicks="30" ppq="96" velocity="0.811"/>
      <note number="4" values="68" ticks="193" durationTicks="32" ppq="96" velocity="0.811"/>
      <note number="5" values="58" ticks="264" durationTicks="18" ppq="96" velocity="0.74"/>
      <note number="6" values="58" ticks="290" durationTicks="91" ppq="96" velocity="0.819"/>
    </notes>
  </exercise>
  <exercise number="6">
    <scale>minor</scale>
    <cadenceVariant>harmonic</cadenceVariant>
    <bpm>100</bpm>
    <lowestNote>18</lowestNote>
    <tonalities>2</tonalities>
    <video name="17.mp4" size="836133" type="video/mp4" volume="0.5">4b9b6068be50721718a3046fb962dcabdc1a4e147342d1e5878096f8f485bfb9</video>
    <notes>
      <note number="1" values="58" ticks="48" durationTicks="24" ppq="96" velocity="0.824"/>
      <note number="2" values="48" ticks="72" durationTicks="23" ppq="96" velocity="0.799"/>
      <note number="3" values="38" ticks="96" durationTicks="23" ppq="96" velocity="0.827"/>
      <note number="4" values="28" ticks="121" durationTicks="47" ppq="96" velocity="0.827"/>
      <note number="5" values="18" ticks="168" durationTicks="48" ppq="96" velocity="0.827"/>
      <note number="6" values="68" ticks="217" durationTicks="95" ppq="96" velocity="0.827"/>
      <note number="7" values="58" ticks="311" durationTicks="95" ppq="96" velocity="0.827"/>
    </notes>
  </exercise>
  <exercise number="7">
    <scale>minor</scale>
    <cadenceVariant>harmonic</cadenceVariant>
    <bpm>100</bpm>
    <lowestNote>18</lowestNote>
    <tonalities>2</tonalities>
    <video name="18.mp4" size="813556" type="video/mp4" volume="0.5">ee5ee539ca7760fa0c6552d996c87cfdb9e46df94dd51140d305a753ae5f3bff</video>
    <notes>
      <note number="1" values="58" ticks="49" durationTicks="33" ppq="96" velocity="0.803"/>
      <note number="2" values="58" ticks="99" durationTicks="31" ppq="96" velocity="0.764"/>
      <note number="3" values="58" ticks="146" durationTicks="30" ppq="96" velocity="0.803"/>
      <note number="4" values="68" ticks="195" durationTicks="32" ppq="96" velocity="0.803"/>
      <note number="5" values="58" ticks="266" durationTicks="18" ppq="96" velocity="0.732"/>
      <note number="6" values="58" ticks="292" durationTicks="91" ppq="96" velocity="0.819"/>
    </notes>
  </exercise>
  <exercise number="8">
    <scale>chromaticminor</scale>
    <cadenceVariant>harmonic</cadenceVariant>
    <bpm>100</bpm>
    <lowestNote>18</lowestNote>
    <tonalities>2</tonalities>
    <video name="19.mp4" size="927693" type="video/mp4" volume="0.5">d9d9193b8028dd48c65955c46f786f4785676ecaba1bd7389004d4d01caf1867</video>
    <notes>
      <note number="1" values="58" ticks="40" durationTicks="24" ppq="96" velocity="0.829"/>
      <note number="2" values="498" ticks="64" durationTicks="23" ppq="96" velocity="0.782"/>
      <note number="3" values="58" ticks="88" durationTicks="24" ppq="96" velocity="0.819"/>
      <note number="4" values="188" ticks="113" durationTicks="47" ppq="96" velocity="0.819"/>
      <note number="5" values="68" ticks="184" durationTicks="20" ppq="96" velocity="0.819"/>
      <note number="6" values="58" ticks="208" durationTicks="95" ppq="96" velocity="0.819"/>
      <note number="7" values="48" ticks="305" durationTicks="95" ppq="96" velocity="0.819"/>
    </notes>
  </exercise>
  <exercise number="9">
    <scale>minor</scale>
    <cadenceVariant>harmonic</cadenceVariant>
    <bpm>100</bpm>
    <lowestNote>18</lowestNote>
    <tonalities>2</tonalities>
    <video name="20.mp4" size="1035612" type="video/mp4" volume="0.5">cdbed6abb8cb6f46df9ea6b720d8b47b4b59188cbc6ce15a6a0c80486fcfec53</video>
    <notes>
      <note number="1" values="48" ticks="70" durationTicks="50" ppq="96" velocity="0.747"/>
      <note number="2" values="38" ticks="120" durationTicks="47" ppq="96" velocity="0.842"/>
      <note number="3" values="28" ticks="167" durationTicks="47" ppq="96" velocity="0.787"/>
      <note number="4" values="188" ticks="216" durationTicks="142" ppq="96" velocity="0.756"/>
      <note number="5" values="78" ticks="361" durationTicks="46" ppq="96" velocity="0.834"/>
      <note number="6" values="68" ticks="411" durationTicks="46" ppq="96" velocity="0.757"/>
      <note number="7" values="58" ticks="465" durationTicks="49" ppq="96" velocity="0.757"/>
    </notes>
  </exercise>
  <exercise number="10">
    <scale>minor</scale>
    <cadenceVariant>harmonic</cadenceVariant>
    <bpm>100</bpm>
    <lowestNote>18</lowestNote>
    <tonalities>2</tonalities>
    <video name="21.mp4" size="987847" type="video/mp4" volume="0.5">39cff3c85355cf0281a32b5f2758e256fd9a848c99accb70400e419c0bf35d48</video>
    <notes>
      <note number="1" values="38" ticks="50" durationTicks="48" ppq="96" velocity="0.74"/>
      <note number="2" values="28" ticks="97" durationTicks="47" ppq="96" velocity="0.835"/>
      <note number="3" values="18" ticks="166" durationTicks="24" ppq="96" velocity="0.78"/>
      <note number="4" values="78" ticks="194" durationTicks="45" ppq="96" velocity="0.782"/>
      <note number="5" values="68" ticks="242" durationTicks="46" ppq="96" velocity="0.764"/>
      <note number="6" values="58" ticks="290" durationTicks="48" ppq="96" velocity="0.827"/>
      <note number="7" values="48" ticks="339" durationTicks="47" ppq="96" velocity="0.827"/>
    </notes>
  </exercise>
  <exercise number="11">
    <scale>chromaticminor</scale>
    <cadenceVariant>harmonic</cadenceVariant>
    <bpm>100</bpm>
    <lowestNote>5</lowestNote>
    <tonalities>2</tonalities>
    <video name="22.mp4" size="1319111" type="video/mp4" volume="0.5">25a0f914b2e5fd34e8e6cd076097824c5147c5e74354ce2a24294727375666a4</video>
    <notes>
      <note number="1" values="18" ticks="72" durationTicks="47" ppq="96" velocity="0.811"/>
      <note number="2" values="79" ticks="120" durationTicks="27" ppq="96" velocity="0.764"/>
      <note number="3" values="79" ticks="164" durationTicks="26" ppq="96" velocity="0.811"/>
      <note number="4" values="79" ticks="212" durationTicks="35" ppq="96" velocity="0.811"/>
      <note number="5" values="79" ticks="260" durationTicks="36" ppq="96" velocity="0.811"/>
      <note number="6" values="79" ticks="309" durationTicks="35" ppq="96" velocity="0.811"/>
      <note number="7" values="79" ticks="355" durationTicks="36" ppq="96" velocity="0.811"/>
      <note number="8" values="69" ticks="404" durationTicks="35" ppq="96" velocity="0.811"/>
      <note number="9" values="79" ticks="454" durationTicks="47" ppq="96" velocity="0.811"/>
      <note number="10" values="18" ticks="500" durationTicks="95" ppq="96" velocity="0.811"/>
    </notes>
  </exercise>
</level>
